<svg width="145" height="133" viewBox="0 0 145 133" fill="none" xmlns="http://www.w3.org/2000/svg">
<path d="M126.163 119.168H72.4496V93.632H144.326L126.163 119.168Z" fill="url(#paint0_linear_9_106)"/>
<path d="M18.7359 119.168H72.4496V93.632H0.573669L18.7359 119.168Z" fill="url(#paint1_linear_9_106)"/>
<path d="M89.1912 21.2333C89.1912 24.049 87.9526 26.7494 85.7477 28.7404C83.5428 30.7314 80.5523 31.85 77.4341 31.85C74.316 31.85 71.3255 30.7314 69.1206 28.7404C66.9157 26.7494 65.677 24.049 65.677 21.2333C65.677 18.4176 66.9157 15.7172 69.1206 13.7262C71.3255 11.7352 74.316 10.6166 77.4341 10.6166C80.5523 10.6166 83.5428 11.7352 85.7477 13.7262C87.9526 15.7172 89.1912 18.4176 89.1912 21.2333ZM93.8941 91.3033C93.8941 91.8665 93.6464 92.4065 93.2054 92.8047C92.7644 93.2029 92.1663 93.4266 91.5427 93.4266H51.2299C49.7701 93.4266 48.3501 92.9971 47.1849 92.2031C46.0196 91.409 45.1726 90.2938 44.7721 89.0262C44.3716 87.7586 44.4394 86.4077 44.9652 85.178C45.4911 83.9483 46.4463 82.9068 47.6863 82.2112L60.1112 75.2424C61.1302 74.6708 61.9709 73.874 62.554 72.9274C63.137 71.9807 63.443 70.9154 63.4432 69.8322V67.9466H69.0255C71.5198 67.9462 73.9118 67.051 75.6753 65.4581L77.4341 63.872L79.1907 65.4581C80.0644 66.2473 81.1018 66.8733 82.2437 67.3003C83.3855 67.7273 84.6093 67.947 85.8452 67.9466H91.5427V69.8407C91.5431 70.9207 91.8476 71.9829 92.4275 72.9274C93.0075 73.872 93.8439 74.6679 94.8582 75.2403L107.194 82.2027C108.433 82.9013 109.386 83.9452 109.91 85.1767C110.434 86.4081 110.499 87.76 110.097 89.0281C109.694 90.2961 108.845 91.4112 107.678 92.2048C106.511 92.9984 105.09 93.4273 103.629 93.4266H98.1972C98.4558 92.762 98.5969 92.0465 98.5969 91.3033V90.7725C98.5967 89.2296 97.9763 87.7393 96.851 86.5783C95.7257 85.4172 94.172 84.6645 92.4785 84.4598L61.4045 80.7057C60.7914 80.64 60.1742 80.7946 59.6862 81.1363C59.1983 81.4779 58.8787 81.9792 58.7966 82.5318C58.7144 83.0844 58.8763 83.644 59.2472 84.0898C59.6182 84.5355 60.1684 84.8317 60.779 84.9142L91.8554 88.6683C92.4198 88.7366 92.9375 88.9876 93.3124 89.3746C93.6873 89.7616 93.894 90.2583 93.8941 90.7725V91.3033ZM82.5179 62.4557L79.7856 59.9884V52.0429C80.1367 52.2255 80.4612 52.4506 80.759 52.7181L85.1774 56.71C85.6186 57.1074 86.2166 57.3304 86.8398 57.33H93.8941C94.2947 57.3298 94.6887 57.2371 95.0386 57.0609C95.3885 56.8846 95.6827 56.6305 95.8933 56.3227C96.1038 56.0149 96.2238 55.6636 96.2419 55.3022C96.2599 54.9407 96.1754 54.5811 95.9963 54.2575L93.6448 50.0108C93.5128 49.7527 93.3246 49.5211 93.0916 49.3299C92.8585 49.1386 92.5853 48.9916 92.2881 48.8975C91.991 48.8034 91.6759 48.7642 91.3616 48.7822C91.0473 48.8002 90.7402 48.8749 90.4586 49.0021C90.1769 49.1293 89.9264 49.3063 89.7219 49.5225C89.5174 49.7388 89.3631 49.9899 89.2682 50.261C89.1732 50.5322 89.1396 50.8178 89.1692 51.1009C89.1988 51.384 89.291 51.6588 89.4405 51.9091L90.0895 53.0833H87.8133L84.084 49.7157C82.3201 48.1234 79.9282 47.229 77.4341 47.229C74.9401 47.229 72.5481 48.1234 70.7843 49.7157L67.055 53.0833H64.7788L65.4278 51.9091C65.5772 51.6588 65.6695 51.384 65.6991 51.1009C65.7287 50.8178 65.695 50.5322 65.6001 50.261C65.5051 49.9899 65.3508 49.7388 65.1464 49.5225C64.9419 49.3063 64.6914 49.1293 64.4097 49.0021C64.128 48.8749 63.821 48.8002 63.5067 48.7822C63.1924 48.7642 62.8773 48.8034 62.5801 48.8975C62.283 48.9916 62.0097 49.1386 61.7767 49.3299C61.5436 49.5211 61.3555 49.7527 61.2234 50.0108L58.872 54.2575C58.6929 54.5811 58.6084 54.9407 58.6264 55.3022C58.6444 55.6636 58.7644 56.0149 58.975 56.3227C59.1856 56.6305 59.4798 56.8846 59.8297 57.0609C60.1796 57.2371 60.5735 57.3298 60.9742 57.33H68.0285C68.652 57.3299 69.25 57.1061 69.6909 56.7078L74.1092 52.7181C74.4086 52.4506 74.7331 52.2255 75.0827 52.0429V59.9884L72.3504 62.4557C71.4686 63.2522 70.2726 63.6997 69.0255 63.7H54.8276C54.0628 63.7 53.3096 63.5316 52.6332 63.2094C51.9568 62.8872 51.3777 62.4209 50.9459 61.8509C50.5141 61.2809 50.2428 60.6245 50.1554 59.9385C50.0681 59.2524 50.1673 58.5575 50.4445 57.9139L57.5082 41.5111C58.1952 39.9162 59.3997 38.5459 60.9639 37.5797C62.5282 36.6136 64.3791 36.0966 66.2743 36.0966H88.594C90.4891 36.0966 92.3401 36.6136 93.9043 37.5797C95.4686 38.5459 96.6731 39.9162 97.3601 41.5111L104.426 57.9139C104.703 58.5578 104.803 59.2531 104.715 59.9395C104.627 60.6259 104.356 61.2826 103.923 61.8527C103.491 62.4227 102.911 62.889 102.234 63.2109C101.557 63.5328 100.803 63.7007 100.038 63.7H85.8405C84.5933 63.6997 83.3973 63.2522 82.5156 62.4557" fill="#00A388"/>
<defs>
<linearGradient id="paint0_linear_9_106" x1="72.4496" y1="106.4" x2="144.326" y2="106.4" gradientUnits="userSpaceOnUse">
<stop stop-color="white" stop-opacity="0.75"/>
<stop offset="0.6" stop-color="#FFFEFE"/>
</linearGradient>
<linearGradient id="paint1_linear_9_106" x1="70.9967" y1="104.357" x2="-0.879276" y2="104.357" gradientUnits="userSpaceOnUse">
<stop stop-color="white" stop-opacity="0.75"/>
<stop offset="0.6" stop-color="#FFFEFE"/>
</linearGradient>
</defs>
</svg>
