<svg width="145" height="137" viewBox="0 0 145 137" fill="none" xmlns="http://www.w3.org/2000/svg">
<path d="M84.9817 78.9568C84.5918 79.2656 84.2288 79.6009 83.896 79.96C82.9502 78.6124 81.8408 77.3643 80.5883 76.2391C80.155 75.8463 79.6402 75.5347 79.0732 75.3221C78.5063 75.1095 77.8984 75 77.2845 75C76.6706 75 76.0627 75.1095 75.4957 75.3221C74.9288 75.5347 74.4139 75.8463 73.9806 76.2391C72.751 77.3418 71.6587 78.5628 70.7235 79.8802C69.5909 78.6885 68.1367 77.7812 66.5018 77.2459C64.8669 76.7106 63.1066 76.5657 61.3914 76.825C59.9373 77.0414 58.5533 77.5426 57.3364 78.2933C52.6017 81.1845 48.7266 85.0824 46.0523 89.6439C43.3779 94.2053 41.9864 99.2905 42.0001 104.452C42.0151 112.587 45.4694 120.41 51.6573 126.323C57.8452 132.235 66.2997 135.792 75.2936 136.264C75.9177 136.533 76.6 136.672 77.2912 136.673C77.9824 136.675 78.6652 136.537 79.2905 136.271C88.3263 135.822 96.8274 132.261 103.042 126.322C109.258 120.382 112.713 112.516 112.698 104.345C112.694 99.1862 111.285 94.1078 108.596 89.5567C105.907 85.0055 102.02 81.1211 97.278 78.2455C95.4299 77.1189 93.2201 76.5777 90.9949 76.7069C88.7697 76.836 86.6548 77.6258 84.9817 78.9568ZM100.096 125.387C99.9344 125.74 99.6608 126.043 99.3095 126.256C98.9581 126.469 98.5447 126.584 98.1213 126.586C97.5002 126.585 96.8794 126.56 96.2604 126.513C96.1426 126.504 96.0248 126.491 95.907 126.474L95.6469 126.442L95.3944 126.415C95.076 126.385 94.7586 126.347 94.4425 126.301C94.2969 126.277 94.1521 126.25 94.0082 126.219L93.7507 126.166L93.5032 126.121C93.2247 126.072 92.9476 126.015 92.6725 125.952C92.5119 125.914 92.3528 125.87 92.1953 125.822L91.9555 125.754L91.7409 125.697C91.4804 125.63 91.2219 125.557 90.9657 125.478C90.8058 125.425 90.6509 125.369 90.5011 125.311L90.2411 125.216L90.0391 125.145C89.795 125.061 89.5551 124.972 89.3195 124.878C89.1534 124.811 88.99 124.739 88.8296 124.662L88.6074 124.559L88.3676 124.452C88.1572 124.361 87.9501 124.265 87.7464 124.165C87.5908 124.085 87.4376 124.001 87.2869 123.914L87.0445 123.782L86.8855 123.695C86.6835 123.585 86.4562 123.462 86.2517 123.341C86.0998 123.249 85.9508 123.152 85.8048 123.052L85.5801 122.904C82.0787 120.62 79.422 117.435 77.9574 113.766C79.3467 113.669 80.6912 113.278 81.8811 112.623C85.3381 114.28 89.1931 115.144 93.1068 115.14C94.4989 115.14 95.8809 115.032 97.2527 114.817L97.2856 114.864L97.3714 114.992C97.7788 115.626 98.1457 116.279 98.4723 116.951C98.516 117.045 98.5581 117.14 98.5985 117.236L98.6263 117.304C98.9158 117.932 99.1683 118.572 99.3838 119.224L99.4343 119.365L99.5024 119.57C99.7582 120.42 99.9455 121.284 100.063 122.158L100.078 122.279C100.191 123.06 100.25 123.845 100.255 124.632V124.65C100.252 124.902 100.198 125.152 100.096 125.387ZM76.6192 113.766C75.1231 117.517 72.3818 120.761 68.7692 123.054C68.6228 123.155 68.473 123.251 68.3198 123.344C68.0654 123.495 67.8061 123.64 67.5421 123.777L67.3502 123.882C67.1777 123.981 67.0026 124.076 66.825 124.167C66.6483 124.256 66.4362 124.349 66.2292 124.44L66.1206 124.488L65.7368 124.664L65.252 124.88C64.9574 124.999 64.6595 125.108 64.3582 125.207L64.131 125.289C63.9558 125.355 63.779 125.418 63.6007 125.478C63.3659 125.553 63.126 125.615 62.8887 125.681L62.6488 125.745L62.3585 125.827C62.2036 125.874 62.0479 125.916 61.8914 125.954C61.5569 126.03 61.2201 126.097 60.8814 126.155L60.6036 126.21C60.4454 126.242 60.2855 126.272 60.1239 126.301C59.8108 126.347 59.4927 126.385 59.1695 126.415L58.9246 126.442L58.667 126.472L58.3085 126.513C57.6896 126.56 57.0688 126.585 56.4476 126.586C55.8786 126.585 55.3332 126.38 54.9306 126.017C54.528 125.654 54.3009 125.162 54.2989 124.648C54.301 124.031 54.3339 123.415 54.3974 122.801C54.4109 122.672 54.4286 122.543 54.4504 122.414L54.4807 122.222C54.5346 121.812 54.6028 121.407 54.6853 121.007C54.7206 120.844 54.7576 120.687 54.7964 120.535L54.8418 120.35C55.0912 119.365 55.4255 118.399 55.8417 117.461L55.8846 117.356C55.9418 117.22 56.0016 117.086 56.0639 116.955C56.2905 116.487 56.5364 116.027 56.8011 115.576C56.8348 115.507 56.8701 115.444 56.9072 115.387C57.2102 114.88 57.5401 114.389 57.8969 113.914C57.9592 113.832 58.0232 113.751 58.0888 113.672L58.2277 113.499C60.7635 110.246 64.3511 107.78 68.499 106.44C68.6601 108.336 69.5676 110.117 71.0571 111.46C72.5466 112.804 74.5197 113.622 76.6192 113.766ZM70.5947 100.649C69.6933 101.6 69.0524 102.729 68.7238 103.946C64.9608 104.974 61.5397 106.831 58.768 109.349C57.8018 110.24 56.9257 111.197 56.1396 112.222C52.4193 111.383 49.0206 109.648 46.3051 107.204V107.197C45.9067 106.835 45.6822 106.346 45.6803 105.836C45.6784 105.326 45.8993 104.836 46.295 104.472C49.6116 101.47 53.9348 99.5416 58.5913 98.9889C59.5359 98.868 60.488 98.801 61.4419 98.7882C64.6233 98.7882 67.7491 99.4335 70.5947 100.649ZM83.9793 111.007C84.9291 110.005 85.5893 108.807 85.9007 107.518C90.8804 106.087 95.2039 103.223 98.2097 99.3628C102.02 100.195 105.502 101.96 108.271 104.465C108.583 104.747 108.79 105.109 108.866 105.501C108.942 105.893 108.883 106.296 108.696 106.656C108.588 106.856 108.446 107.038 108.274 107.197C105.151 110.013 101.142 111.89 96.794 112.572C92.4458 113.254 87.9706 112.707 83.9793 111.007ZM86.0649 105.081C85.8679 103.18 84.9204 101.406 83.3954 100.083C81.8704 98.7607 79.8695 97.9773 77.7579 97.8762C79.2626 94.063 82.0518 90.7709 85.7341 88.4621C85.8856 88.3603 86.0413 88.2615 86.2012 88.1657C86.3956 88.054 86.6431 87.9195 86.8779 87.7941L86.9915 87.7325L87.2086 87.614C87.3651 87.5257 87.5242 87.4413 87.6858 87.3609C87.9616 87.2245 88.2429 87.0975 88.5292 86.9801L88.7337 86.8844C88.902 86.8008 89.0729 86.727 89.2462 86.6632C89.5425 86.5431 89.843 86.4337 90.1476 86.3349L90.4961 86.2095C90.6206 86.1639 90.746 86.1198 90.8723 86.0772C91.1315 85.9997 91.3924 85.9275 91.655 85.8606L91.852 85.8082L92.1044 85.7375C92.2559 85.6919 92.4091 85.6509 92.564 85.6144C92.8516 85.549 93.1412 85.4912 93.4325 85.4411L93.6118 85.4092L93.834 85.3636C93.9922 85.3302 94.1513 85.2998 94.3112 85.2724C94.6243 85.2283 94.9391 85.1911 95.2555 85.1607L95.4878 85.1379L95.7252 85.1082C95.8514 85.0915 95.9793 85.0763 96.109 85.0626C96.7149 85.017 97.3276 84.9943 97.9471 84.9943C98.5141 84.9955 99.0576 85.1992 99.4587 85.5611C99.8599 85.9229 100.086 86.4134 100.088 86.9254C100.09 87.5436 100.057 88.1615 99.9897 88.7768C99.9763 88.9044 99.9586 89.0321 99.9367 89.1598L99.9064 89.3559C99.8509 89.7663 99.7819 90.1729 99.6994 90.5757C99.6674 90.7322 99.632 90.8858 99.5933 91.0362L99.5428 91.2369C99.393 91.8259 99.2144 92.4086 99.0075 92.9834C98.8752 93.3438 98.7303 93.7004 98.5733 94.0527L98.4571 94.3263L98.3208 94.6409C98.1272 95.0335 97.9201 95.4206 97.6996 95.8014L97.6088 95.9656L97.4699 96.2141C97.1636 96.7221 96.8308 97.2167 96.4725 97.6961C96.4075 97.7818 96.3393 97.8654 96.268 97.9469L96.2201 98.0016C93.7171 101.244 90.1725 103.715 86.0649 105.081ZM76.6091 97.8899C75.2132 97.988 73.8632 98.3842 72.6702 99.0459C67.9593 96.7906 62.5494 96.0203 57.2985 96.8571L57.1773 96.6747C56.7307 95.9823 56.3352 95.264 55.9932 94.5246L55.9225 94.365C55.6179 93.6912 55.3532 93.0032 55.1296 92.3039C55.1044 92.237 55.0817 92.1686 55.0615 92.0987C54.8058 91.2502 54.6185 90.3861 54.5009 89.5132L54.4858 89.3924C54.3755 88.6073 54.3157 87.8171 54.3065 87.0257C54.3056 86.7712 54.3601 86.5189 54.4671 86.2834C54.5741 86.0479 54.7315 85.8338 54.9302 85.6532C55.1299 85.4733 55.367 85.3308 55.6278 85.2338C55.8887 85.1368 56.1681 85.0872 56.4502 85.0877C56.8962 85.0877 57.3389 85.0991 57.7783 85.1219C58.3287 85.1554 58.8766 85.2086 59.422 85.2815L59.6821 85.3089L59.8335 85.3248L60.4875 85.4343L60.6996 85.4776L60.7829 85.4913C61.1257 85.5517 61.4667 85.6201 61.8055 85.6965L61.8484 85.7056L62.0201 85.7512C62.0774 85.7694 62.1346 85.7846 62.1918 85.7968L62.3181 85.831C62.7321 85.9359 63.1437 86.0408 63.5477 86.173L63.6361 86.2049L63.6941 86.2277C64.1991 86.3919 64.7041 86.5674 65.1838 86.7635C65.2747 86.8015 65.3656 86.8426 65.4565 86.8866L65.6888 86.9915L65.8757 87.0736C66.1787 87.1998 66.4741 87.3335 66.7619 87.4749C66.8831 87.5372 67.0026 87.6018 67.1204 87.6687L67.325 87.7827L67.5598 87.9058C67.7954 88.0274 68.026 88.1551 68.2516 88.2888C68.4267 88.3937 68.595 88.5016 68.7566 88.6126L68.9737 88.7585C72.4786 91.039 75.1397 94.2216 76.6091 97.8899ZM53.2637 117.224C53.0824 117.669 52.9165 118.12 52.7663 118.574L52.2033 118.376C51.1326 117.976 50.2798 117.211 49.8306 116.247C49.3814 115.283 49.372 114.198 49.8046 113.227C49.9005 113.012 50.0015 112.799 50.1076 112.589C51.5645 113.296 53.1047 113.868 54.7029 114.292C54.7012 114.307 54.6928 114.325 54.6777 114.345L54.6701 114.358C54.2371 115.074 53.8518 115.813 53.5162 116.57C53.4523 116.717 53.3933 116.866 53.3395 117.017L53.2637 117.224ZM49.7162 98.6879C49.2721 97.722 49.2683 96.6368 49.7057 95.6684C50.1431 94.7 50.9863 93.9268 52.0518 93.5169C52.3043 93.4196 52.5601 93.3276 52.8193 93.241C53.0415 93.925 53.3024 94.5999 53.6021 95.2656C53.7005 95.4822 53.8142 95.6874 53.9303 95.8995L53.9909 96.0135L54.1853 96.4033C54.3469 96.7294 54.5085 97.0554 54.7004 97.3815C53.0479 97.8175 51.4529 98.4145 49.9435 99.1621L49.7162 98.6879ZM101.217 94.1416C101.353 93.795 101.502 93.4029 101.633 93.0153C101.871 93.0943 102.107 93.1772 102.343 93.2638C102.879 93.4568 103.367 93.7438 103.779 94.1081C104.191 94.4724 104.52 94.9068 104.745 95.3863C104.97 95.8658 105.088 96.3809 105.092 96.9018C105.096 97.4227 104.985 97.939 104.767 98.4211C104.666 98.6415 104.562 98.8597 104.456 99.0755C102.935 98.3387 101.33 97.7524 99.6691 97.3267L99.7549 97.1626L99.8458 96.9916C100.374 96.0708 100.832 95.1186 101.217 94.1416ZM104.883 112.965C105.107 113.443 105.224 113.957 105.228 114.476C105.232 114.995 105.122 115.51 104.905 115.991C104.688 116.472 104.368 116.909 103.964 117.278C103.559 117.647 103.078 117.94 102.547 118.141C102.283 118.241 102.018 118.336 101.752 118.426C101.529 117.734 101.266 117.054 100.964 116.388C100.86 116.164 100.746 115.945 100.623 115.731L100.576 115.64L100.381 115.252C100.222 114.92 100.05 114.593 99.866 114.272C101.528 113.834 103.133 113.234 104.651 112.482C104.73 112.641 104.807 112.803 104.883 112.965ZM90.7309 83.0175C90.8319 83.2333 90.9287 83.4499 91.0213 83.6673L90.8395 83.7197C90.1855 83.9021 89.5316 84.0914 88.8953 84.3262C88.6142 84.4326 88.3373 84.5466 88.0646 84.6682L87.7641 84.8005L87.3399 84.9714C87.0874 85.0718 86.8299 85.1744 86.5875 85.2906C86.1002 83.8188 85.4391 82.3986 84.6156 81.0544L84.9918 80.9062C85.5296 80.701 86.1078 80.5984 86.691 80.5984C87.5534 80.5962 88.3972 80.8245 89.1161 81.2546C89.8351 81.6846 90.3969 82.2995 90.7309 83.0175ZM67.9208 85.4366C67.5825 85.2678 67.2315 85.1265 66.8806 84.9851L66.4286 84.8005L66.0751 84.6477C65.9034 84.5702 65.7284 84.4972 65.5499 84.4288C64.8179 84.1659 64.0712 83.9376 63.3129 83.7448L63.1488 83.6969C63.2211 83.5237 63.296 83.3511 63.3735 83.1794C63.6989 82.452 64.257 81.8288 64.9766 81.3894C65.6963 80.95 66.5446 80.7143 67.4133 80.7124L67.426 80.7079C67.9941 80.7079 68.5546 80.8059 69.0798 81.002C69.3222 81.0932 69.5637 81.1874 69.8044 81.2847C69.0176 82.6046 68.3863 83.9977 67.9208 85.4366ZM86.6481 126.242C86.8164 126.324 86.9898 126.399 87.1682 126.467L87.4536 126.581L87.6177 126.657C88.1025 126.875 88.5872 127.094 89.0947 127.281C89.5013 127.434 89.928 127.557 90.3547 127.68C90.7027 127.782 91.0495 127.886 91.3949 127.995L91.198 128.446C90.9848 128.931 90.6673 129.372 90.2639 129.744C89.8606 130.117 89.3793 130.413 88.8481 130.617C88.3168 130.82 87.7461 130.926 87.1691 130.929C86.5921 130.932 86.0203 130.831 85.4866 130.633C85.2508 130.546 85.0168 130.455 84.7847 130.359C85.5623 129.049 86.1868 127.669 86.6481 126.242ZM69.3802 130.701C68.3101 131.108 67.1047 131.115 66.029 130.72C64.9533 130.325 64.0953 129.561 63.6436 128.595C63.543 128.378 63.4471 128.16 63.3558 127.94L63.525 127.89L63.9365 127.765L64.2976 127.658C64.7016 127.539 65.1056 127.42 65.4969 127.274C65.9666 127.103 66.4185 126.901 66.8705 126.698L67.1406 126.577C67.2534 126.528 67.367 126.481 67.4815 126.435C67.6381 126.375 67.7921 126.309 67.9436 126.237C68.4267 127.727 69.0764 129.148 69.8928 130.501C69.7245 130.571 69.5536 130.637 69.3802 130.701ZM75.7657 77.8465C76.168 77.4845 76.7128 77.2812 77.2807 77.2812C77.8486 77.2812 78.3934 77.4845 78.7956 77.8465C81.4637 80.263 83.3684 83.2793 84.3126 86.5834C81.3789 88.3958 78.9335 90.7801 77.157 93.5602C75.4057 90.867 73.0302 88.5477 70.1933 86.7612C71.1206 83.3881 73.0469 80.3064 75.7657 77.8465ZM78.8032 133.798C78.4009 134.16 77.8562 134.363 77.2883 134.363C76.7203 134.363 76.1756 134.16 75.7733 133.798C73.0679 131.34 71.1486 128.268 70.2185 124.906C73.1201 123.086 75.5354 120.705 77.2883 117.936C79.0396 120.709 81.455 123.094 84.358 124.917C83.4298 128.277 81.5101 131.345 78.8032 133.798Z" fill="url(#paint0_linear_3_3)"/>
<path d="M126.163 119.168H72.4496V93.632H144.326L126.163 119.168Z" fill="url(#paint1_linear_3_3)"/>
<path d="M18.7358 119.168H72.4496V93.632H0.573608L18.7358 119.168Z" fill="url(#paint2_linear_3_3)"/>
<path d="M89.1912 21.2333C89.1912 24.049 87.9526 26.7494 85.7477 28.7404C83.5428 30.7314 80.5523 31.85 77.4341 31.85C74.316 31.85 71.3255 30.7314 69.1206 28.7404C66.9157 26.7494 65.677 24.049 65.677 21.2333C65.677 18.4176 66.9157 15.7172 69.1206 13.7262C71.3255 11.7352 74.316 10.6166 77.4341 10.6166C80.5523 10.6166 83.5428 11.7352 85.7477 13.7262C87.9526 15.7172 89.1912 18.4176 89.1912 21.2333ZM93.8941 91.3033C93.8941 91.8665 93.6464 92.4065 93.2054 92.8047C92.7644 93.2029 92.1663 93.4266 91.5427 93.4266H51.2299C49.7701 93.4266 48.3501 92.9971 47.1849 92.2031C46.0196 91.409 45.1726 90.2938 44.7721 89.0262C44.3716 87.7586 44.4394 86.4077 44.9652 85.178C45.4911 83.9483 46.4463 82.9068 47.6863 82.2112L60.1112 75.2424C61.1302 74.6708 61.9709 73.874 62.554 72.9274C63.137 71.9807 63.443 70.9154 63.4432 69.8322V67.9466H69.0255C71.5198 67.9462 73.9118 67.051 75.6753 65.4581L77.4341 63.872L79.1907 65.4581C80.0644 66.2473 81.1018 66.8733 82.2437 67.3003C83.3855 67.7273 84.6093 67.947 85.8452 67.9466H91.5427V69.8407C91.5431 70.9207 91.8476 71.9829 92.4275 72.9274C93.0075 73.872 93.8439 74.6679 94.8582 75.2403L107.194 82.2027C108.433 82.9013 109.386 83.9452 109.91 85.1767C110.434 86.4081 110.499 87.76 110.097 89.0281C109.694 90.2961 108.845 91.4112 107.678 92.2048C106.511 92.9984 105.09 93.4273 103.629 93.4266H98.1972C98.4558 92.762 98.5969 92.0465 98.5969 91.3033V90.7725C98.5967 89.2296 97.9763 87.7393 96.851 86.5783C95.7257 85.4172 94.172 84.6645 92.4785 84.4598L61.4045 80.7057C60.7914 80.64 60.1742 80.7946 59.6862 81.1363C59.1983 81.4779 58.8787 81.9792 58.7966 82.5318C58.7144 83.0844 58.8763 83.644 59.2472 84.0898C59.6182 84.5355 60.1684 84.8317 60.779 84.9142L91.8554 88.6683C92.4198 88.7366 92.9375 88.9876 93.3124 89.3746C93.6873 89.7616 93.894 90.2583 93.8941 90.7725V91.3033ZM82.5179 62.4557L79.7856 59.9884V52.0429C80.1367 52.2255 80.4612 52.4506 80.759 52.7181L85.1774 56.71C85.6186 57.1074 86.2166 57.3304 86.8398 57.33H93.8941C94.2947 57.3298 94.6887 57.2371 95.0386 57.0609C95.3885 56.8846 95.6827 56.6305 95.8933 56.3227C96.1038 56.0149 96.2238 55.6636 96.2419 55.3022C96.2599 54.9407 96.1754 54.5811 95.9963 54.2575L93.6448 50.0108C93.5128 49.7527 93.3246 49.5211 93.0916 49.3299C92.8585 49.1386 92.5853 48.9916 92.2881 48.8975C91.991 48.8034 91.6759 48.7642 91.3616 48.7822C91.0473 48.8002 90.7402 48.8749 90.4586 49.0021C90.1769 49.1293 89.9264 49.3063 89.7219 49.5225C89.5174 49.7388 89.3631 49.9899 89.2682 50.261C89.1732 50.5322 89.1396 50.8178 89.1692 51.1009C89.1988 51.384 89.291 51.6588 89.4405 51.9091L90.0895 53.0833H87.8133L84.084 49.7157C82.3201 48.1234 79.9282 47.229 77.4341 47.229C74.9401 47.229 72.5481 48.1234 70.7843 49.7157L67.055 53.0833H64.7788L65.4278 51.9091C65.5772 51.6588 65.6695 51.384 65.6991 51.1009C65.7287 50.8178 65.695 50.5322 65.6001 50.261C65.5051 49.9899 65.3508 49.7388 65.1464 49.5225C64.9419 49.3063 64.6914 49.1293 64.4097 49.0021C64.128 48.8749 63.821 48.8002 63.5067 48.7822C63.1924 48.7642 62.8773 48.8034 62.5801 48.8975C62.283 48.9916 62.0097 49.1386 61.7767 49.3299C61.5436 49.5211 61.3555 49.7527 61.2234 50.0108L58.872 54.2575C58.6929 54.5811 58.6084 54.9407 58.6264 55.3022C58.6444 55.6636 58.7644 56.0149 58.975 56.3227C59.1856 56.6305 59.4798 56.8846 59.8297 57.0609C60.1796 57.2371 60.5735 57.3298 60.9742 57.33H68.0285C68.652 57.3299 69.25 57.1061 69.6909 56.7078L74.1092 52.7181C74.4086 52.4506 74.7331 52.2255 75.0827 52.0429V59.9884L72.3504 62.4557C71.4686 63.2522 70.2726 63.6997 69.0255 63.7H54.8276C54.0628 63.7 53.3096 63.5316 52.6332 63.2094C51.9568 62.8872 51.3777 62.4209 50.9459 61.8509C50.5141 61.2809 50.2428 60.6245 50.1554 59.9385C50.0681 59.2524 50.1673 58.5575 50.4445 57.9139L57.5082 41.5111C58.1952 39.9162 59.3997 38.5459 60.9639 37.5797C62.5282 36.6136 64.3791 36.0966 66.2743 36.0966H88.594C90.4891 36.0966 92.3401 36.6136 93.9043 37.5797C95.4686 38.5459 96.6731 39.9162 97.3601 41.5111L104.426 57.9139C104.703 58.5578 104.803 59.2531 104.715 59.9395C104.627 60.6259 104.356 61.2826 103.923 61.8527C103.491 62.4227 102.911 62.889 102.234 63.2109C101.557 63.5328 100.803 63.7007 100.038 63.7H85.8405C84.5933 63.6997 83.3973 63.2522 82.5156 62.4557" fill="#00A388"/>
<defs>
<linearGradient id="paint0_linear_3_3" x1="77.3488" y1="75" x2="77.3488" y2="136.673" gradientUnits="userSpaceOnUse">
<stop offset="0.671667" stop-color="white" stop-opacity="0"/>
<stop offset="0.731667" stop-color="#00A388"/>
</linearGradient>
<linearGradient id="paint1_linear_3_3" x1="72.4496" y1="106.4" x2="144.326" y2="106.4" gradientUnits="userSpaceOnUse">
<stop stop-color="white" stop-opacity="0.75"/>
<stop offset="0.6" stop-color="#FFFEFE"/>
</linearGradient>
<linearGradient id="paint2_linear_3_3" x1="70.9966" y1="104.357" x2="-0.879337" y2="104.357" gradientUnits="userSpaceOnUse">
<stop stop-color="white" stop-opacity="0.75"/>
<stop offset="0.6" stop-color="#FFFEFE"/>
</linearGradient>
</defs>
</svg>
