<svg width="60" height="62" viewBox="0 0 60 62" fill="none" xmlns="http://www.w3.org/2000/svg">
<path d="M47.1094 20.3438C46.7661 25.2686 43.2305 29.0625 39.375 29.0625C35.5196 29.0625 31.9782 25.2698 31.6407 20.3438C31.2891 15.2203 34.7309 11.625 39.375 11.625C44.0192 11.625 47.461 15.3135 47.1094 20.3438Z" stroke="#9FC339" stroke-width="3" stroke-linecap="round" stroke-linejoin="round"/>
<path d="M39.375 36.8125C31.7379 36.8125 24.3938 40.7323 22.5539 48.3661C22.3102 49.376 22.9231 50.375 23.9274 50.375H54.8238C55.8281 50.375 56.4375 49.376 56.1973 48.3661C54.3574 40.61 47.0133 36.8125 39.375 36.8125Z" stroke="#9FC339" stroke-width="3" stroke-miterlimit="10"/>
<path d="M23.4375 22.5162C23.1633 26.4493 20.3063 29.5469 17.2266 29.5469C14.1469 29.5469 11.2852 26.4505 11.0156 22.5162C10.7356 18.4244 13.5164 15.5 17.2266 15.5C20.9367 15.5 23.7176 18.4995 23.4375 22.5162Z" stroke="#9FC339" stroke-width="3" stroke-linecap="round" stroke-linejoin="round"/>
<path d="M24.1407 37.0547C22.0254 36.0533 19.6958 35.6682 17.2266 35.6682C11.1329 35.6682 5.26177 38.7985 3.79106 44.8956C3.5977 45.702 4.08755 46.5001 4.88911 46.5001H18.0469" stroke="#9FC339" stroke-width="3" stroke-miterlimit="10" stroke-linecap="round"/>
</svg>
