<svg width="60" height="60" viewBox="0 0 60 60" fill="none" xmlns="http://www.w3.org/2000/svg">
<g clip-path="url(#clip0_122_404)">
<path d="M56.1834 28.8167L31.1834 3.81669C30.8711 3.50627 30.4487 3.33203 30.0084 3.33203C29.5681 3.33203 29.1456 3.50627 28.8334 3.81669L3.83338 28.8167C3.56034 29.1355 3.41766 29.5456 3.43386 29.9651C3.45006 30.3846 3.62395 30.7825 3.92077 31.0793C4.2176 31.3761 4.6155 31.55 5.03496 31.5662C5.45442 31.5824 5.86454 31.4397 6.18338 31.1667L30 7.35002L53.8167 31.1834C54.1355 31.4564 54.5457 31.5991 54.9651 31.5829C55.3846 31.5667 55.7825 31.3928 56.0793 31.096C56.3761 30.7991 56.55 30.4012 56.5662 29.9818C56.5824 29.5623 56.4398 29.1522 56.1667 28.8334L56.1834 28.8167Z" fill="#9FC339"/>
<path d="M46.6667 53.3333H38.3333V36.6666H21.6667V53.3333H13.3333V30L10 33.3333V53.3333C10 54.2174 10.3512 55.0652 10.9763 55.6903C11.6014 56.3155 12.4493 56.6666 13.3333 56.6666H25V40H35V56.6666H46.6667C47.5507 56.6666 48.3986 56.3155 49.0237 55.6903C49.6488 55.0652 50 54.2174 50 53.3333V32.9333L46.6667 29.6V53.3333Z" fill="#9FC339"/>
</g>
<defs>
<clipPath id="clip0_122_404">
<rect width="60" height="60" fill="white"/>
</clipPath>
</defs>
</svg>
